<?xml version="1.0" encoding="UTF-8" standalone="no"?>
<svg xmlns="http://www.w3.org/2000/svg" version="1.2" baseProfile="tiny" viewBox="0.00 0.00 500.00 499.00">
<path fill="#000000" d="
  M 205.80 304.28
  C 192.35 313.29 178.83 322.42 165.22 331.68
  C 160.40 334.96 156.05 337.90 151.50 333.47
  C 150.47 332.46 149.42 330.65 148.36 328.05
  C 143.91 317.15 139.50 306.22 135.15 295.27
  C 132.55 288.72 131.13 286.37 135.17 280.80
  C 151.21 258.72 167.22 236.68 183.21 214.68
  C 183.56 214.20 183.70 213.66 183.62 213.07
  C 180.12 186.51 180.46 160.07 184.65 133.75
  C 191.97 87.76 214.49 44.12 245.45 9.04
  C 250.89 2.88 255.58 1.75 261.27 8.13
  C 278.01 26.88 291.48 46.77 301.69 67.80
  C 323.79 113.31 330.67 163.07 324.03 213.22
  C 323.96 213.75 324.10 214.29 324.41 214.73
  C 340.74 237.21 357.02 259.62 373.25 281.97
  C 375.11 284.53 375.45 287.29 374.28 290.26
  C 369.02 303.59 363.75 316.92 358.47 330.25
  C 357.11 333.68 353.09 336.20 349.37 335.51
  C 348.22 335.30 346.43 334.38 343.98 332.73
  C 329.88 323.25 315.84 313.76 301.87 304.27
  C 301.47 304.00 300.93 304.17 300.76 304.62
  C 298.57 310.37 296.42 316.08 294.32 321.75
  C 292.52 326.61 288.87 327.67 284.03 327.33
  C 283.50 327.29 283.13 327.85 283.37 328.32
  C 286.63 334.70 289.80 341.00 292.89 347.22
  C 293.86 349.19 294.28 350.94 294.14 352.48
  C 293.51 359.40 288.11 360.01 281.99 360.00
  C 261.58 359.99 241.16 359.99 220.75 359.99
  C 219.05 359.99 217.40 359.15 215.81 357.47
  C 212.19 353.66 213.16 350.42 215.43 345.87
  C 218.38 339.96 221.32 334.04 224.25 328.11
  C 224.45 327.71 224.32 327.51 223.87 327.50
  C 219.44 327.41 215.42 327.01 213.58 322.44
  C 211.22 316.57 208.94 310.61 206.73 304.58
  C 206.55 304.09 206.24 303.99 205.80 304.28
  Z
  M 226.21 310.79
  C 226.06 311.03 226.33 311.15 227.00 311.16
  C 244.91 311.25 262.80 311.30 280.66 311.31
  C 280.85 311.31 281.02 311.19 281.09 311.02
  C 301.59 259.09 315.25 203.34 308.56 147.15
  C 303.08 101.05 283.58 60.31 254.22 24.63
  C 254.03 24.40 253.67 24.40 253.47 24.63
  C 236.84 44.28 223.65 65.88 213.92 89.43
  C 193.64 138.48 193.26 193.44 205.59 244.48
  C 207.45 252.17 209.23 260.01 211.49 267.42
  C 215.92 281.98 220.84 296.35 226.23 310.54
  C 226.26 310.62 226.25 310.71 226.21 310.79
  Z
  M 149.98 288.60
  L 160.34 314.81
  C 160.43 315.05 160.73 315.14 160.94 314.99
  L 200.34 288.35
  C 200.73 288.09 200.90 287.60 200.76 287.15
  C 195.62 270.52 190.66 254.23 187.33 237.08
  C 187.30 236.92 187.09 236.87 186.99 237.00
  L 150.08 287.83
  C 149.92 288.05 149.88 288.34 149.98 288.60
  Z
  M 320.19 237.19
  C 316.71 254.35 311.83 270.80 306.80 287.58
  C 306.73 287.82 306.82 288.09 307.03 288.23
  L 346.56 314.92
  C 346.85 315.12 347.07 315.06 347.20 314.73
  L 357.47 288.91
  C 357.64 288.47 357.58 287.97 357.30 287.59
  L 320.66 237.09
  C 320.53 236.90 320.24 236.97 320.19 237.19
  Z
  M 272.45 343.68
  C 272.74 343.68 272.92 343.38 272.79 343.13
  L 265.00 327.72
  C 264.93 327.59 264.80 327.51 264.66 327.51
  L 242.87 327.48
  C 242.72 327.48 242.59 327.56 242.53 327.69
  L 234.90 343.16
  C 234.78 343.41 234.96 343.71 235.24 343.71
  L 272.45 343.68
  Z"
/>
<path fill="#000000" d="
  M 294.13 149.43
  C 294.13 171.70 276.08 189.75 253.81 189.75
  C 231.54 189.75 213.49 171.70 213.49 149.43
  C 213.49 127.16 231.54 109.11 253.81 109.11
  C 276.08 109.11 294.13 127.16 294.13 149.43
  Z
  M 277.98 149.42
  C 277.98 136.05 267.15 125.22 253.78 125.22
  C 240.41 125.22 229.58 136.05 229.58 149.42
  C 229.58 162.79 240.41 173.62 253.78 173.62
  C 267.15 173.62 277.98 162.79 277.98 149.42
  Z"
/>
<path fill="#000000" d="
  M 36.12 181.74
  C 78.57 181.81 121.11 181.81 163.75 181.74
  C 176.44 181.72 176.72 198.00 163.22 198.00
  C 120.75 198.03 78.35 198.03 36.02 198.01
  C 35.74 198.01 35.52 198.23 35.52 198.51
  C 35.53 285.92 35.53 373.33 35.52 460.74
  C 35.52 470.12 37.48 473.30 46.96 473.30
  C 184.67 473.31 322.38 473.31 460.09 473.30
  C 467.66 473.30 471.97 471.77 471.97 463.50
  C 471.98 375.17 471.99 286.90 471.99 198.69
  C 471.99 198.32 471.69 198.02 471.31 198.02
  C 428.18 198.03 385.08 198.03 342.00 198.01
  C 340.73 198.01 339.44 197.59 338.12 196.74
  C 333.88 194.03 332.99 188.66 336.16 184.68
  C 338.02 182.35 340.99 181.77 344.17 181.77
  C 386.37 181.75 428.69 181.75 471.12 181.77
  C 471.60 181.77 471.99 181.38 471.99 180.90
  C 472.02 168.05 472.00 155.16 471.93 142.24
  C 471.90 134.64 467.10 133.27 460.30 133.27
  C 420.49 133.26 380.69 133.26 340.88 133.26
  C 338.22 133.26 336.32 133.06 335.19 132.67
  C 328.01 130.19 328.04 120.04 335.25 117.58
  C 336.36 117.20 338.21 117.01 340.80 117.01
  C 379.88 116.98 418.96 116.98 458.04 117.01
  C 463.98 117.02 468.09 117.33 470.37 117.94
  C 478.41 120.12 485.03 126.72 487.28 134.76
  C 487.92 137.05 488.24 140.91 488.24 146.34
  C 488.26 249.98 488.26 353.62 488.25 457.27
  C 488.25 465.14 487.73 470.57 486.68 473.56
  C 483.27 483.29 473.71 489.56 463.25 489.56
  C 323.50 489.53 183.75 489.51 44.00 489.51
  C 33.52 489.52 24.35 483.22 20.94 473.39
  C 19.91 470.40 19.39 464.91 19.39 456.92
  C 19.37 351.70 19.37 246.48 19.40 141.25
  C 19.40 131.22 26.48 121.08 36.43 118.12
  C 38.88 117.39 42.96 117.02 48.68 117.01
  C 87.89 116.97 127.09 116.97 166.29 117.01
  C 169.75 117.02 172.16 117.38 173.52 118.10
  C 176.95 119.92 178.43 123.94 177.25 127.64
  C 175.71 132.46 171.85 133.25 166.95 133.25
  C 127.14 133.26 87.32 133.27 47.51 133.26
  C 39.22 133.26 35.56 135.21 35.54 143.76
  C 35.51 156.19 35.51 168.66 35.53 181.15
  C 35.53 181.54 35.73 181.73 36.12 181.74
  Z"
/>
<circle fill="#000000" cx="59.78" cy="157.54" r="7.95"/>
<circle fill="#000000" cx="92.11" cy="157.54" r="7.97"/>
<circle fill="#000000" cx="124.49" cy="157.54" r="7.99"/>
<rect fill="#000000" x="-8.08" y="-20.07" transform="translate(286.12,396.34) rotate(-0.1)" width="16.16" height="40.14" rx="7.75"/>
<rect fill="#000000" x="213.40" y="376.29" width="16.04" height="40.16" rx="7.70"/>
<rect fill="#000000" x="245.69" y="392.55" width="16.20" height="40.10" rx="7.77"/>
</svg>
