<svg version="1.0" xmlns="http://www.w3.org/2000/svg"
     width="300.000000pt" height="289.000000pt" viewBox="0 0 300.000000 289.000000" preserveAspectRatio="xMidYMid meet">
    <style>
    g {
      fill: #262626;
    }
    @media (prefers-color-scheme: dark) {
      g {
        fill: #d4d4d4;
      }
    }
  </style>
    <g transform="translate(0.000000,289.000000) scale(0.100000,-0.100000)">
        <path d="M1365 2873 c-440 -37 -824 -246 -1077 -586 -95 -129 -211 -360 -231
-464 l-6 -33 222 0 222 0 23 59 c30 77 130 220 207 296 75 75 202 165 286 204
84 38 185 71 221 71 l28 0 -2 -327 -3 -328 -276 -3 -277 -2 -123 -115 -124
-114 -224 6 -224 6 6 -164 c6 -172 21 -265 64 -389 57 -168 170 -356 300 -499
151 -167 426 -340 636 -402 l27 -8 0 229 0 229 -79 41 c-126 66 -262 190 -353
323 -49 72 -108 194 -108 224 l0 23 380 0 380 0 0 -560 0 -560 28 -7 c15 -4
90 -7 167 -6 254 1 440 43 660 148 131 63 227 126 329 219 77 68 216 219 216
234 0 4 -62 45 -138 91 -75 46 -153 97 -173 113 -20 15 -41 28 -47 28 -6 0
-29 -23 -53 -51 -123 -148 -350 -282 -532 -314 l-37 -7 2 333 3 334 336 3 335
2 313 308 313 307 -651 -3 -651 -3 0 331 c0 370 -7 341 75 320 158 -41 319
-136 437 -256 40 -41 77 -74 84 -74 6 0 42 21 80 46 38 26 122 78 187 116
l119 71 -74 74 c-252 257 -566 419 -913 473 -67 11 -247 18 -310 13z"/>
    </g>
</svg>